<svg width="192" height="192" viewBox="0 0 192 192" fill="none" xmlns="http://www.w3.org/2000/svg">
  <rect width="192" height="192" fill="white"/>
  <rect width="192" height="192" rx="15" fill="#005939"/>
  <path d="M94.5258 31.5729L96.0109 32.1617L97.4929 31.5655L97.493 31.5654L97.4934 31.5653L97.4959 31.5642L97.5077 31.5595L97.5571 31.5397L97.7571 31.4598C97.9344 31.3891 98.1984 31.2843 98.5412 31.1491C99.2267 30.8788 100.227 30.4872 101.479 30.0053C103.985 29.041 107.495 27.7167 111.506 26.2778C119.572 23.3848 129.51 20.0864 137.391 18.2866C144.428 16.6792 153.558 15.4147 161.386 14.5207C167.578 13.8137 173 18.7166 173 25.1436V154.068C173 160.519 167.375 165.826 160.609 165.632C152.828 165.409 143.477 165.496 135.895 166.656C127.61 167.923 117.198 171.123 109.021 173.929C104.897 175.343 101.275 176.681 98.684 177.665C97.6051 178.074 96.7035 178.423 96.0171 178.692C95.3456 178.423 94.4676 178.076 93.4177 177.67C90.866 176.682 87.2921 175.34 83.1975 173.922C75.0764 171.109 64.6552 167.905 56.0782 166.652C48.5362 165.55 39.125 165.474 31.301 165.69C24.5802 165.876 19 160.595 19 154.167V25.0721C19 18.6619 24.39 13.7777 30.5503 14.474C38.3397 15.3544 47.453 16.6208 54.5932 18.2828C62.2654 20.0687 72.2099 23.3695 80.3371 26.2688C84.3788 27.7106 87.9315 29.0388 90.473 30.0062C91.7433 30.4898 92.7599 30.8828 93.4574 31.1543C93.8061 31.2901 94.075 31.3954 94.2558 31.4665L94.4599 31.5469L94.5105 31.5669L94.5226 31.5717L94.5254 31.5727L94.5258 31.5729Z" fill="#DDFADD" stroke="#005939" stroke-width="8"/>
  <path d="M34 53C34 53 48.5499 53.6042 57.5 55.76C66.9012 58.0244 80.5 64.5 80.5 64.5" stroke="#005939" stroke-width="6" stroke-linecap="round"/>
  <path d="M34 86.5C34 86.5 48.5499 87.1042 57.5 89.26C66.9012 91.5244 80.5 98 80.5 98" stroke="#005939" stroke-width="6" stroke-linecap="round"/>
  <path d="M34 119.5C34 119.5 48.5499 120.104 57.5 122.26C66.9012 124.524 80.5 131 80.5 131" stroke="#005939" stroke-width="6" stroke-linecap="round"/>
  <path d="M157.5 53C157.5 53 142.95 53.6042 134 55.76C124.599 58.0244 111 64.5 111 64.5" stroke="#005939" stroke-width="6" stroke-linecap="round"/>
  <path d="M157.5 86.5C157.5 86.5 142.95 87.1042 134 89.26C124.599 91.5244 111 98 111 98" stroke="#005939" stroke-width="6" stroke-linecap="round"/>
  <path d="M157.5 119.5C157.5 119.5 142.95 120.104 134 122.26C124.599 124.524 111 131 111 131" stroke="#005939" stroke-width="6" stroke-linecap="round"/>
</svg>